<?xml version="1.0" encoding="utf-8"?>
<!-- Generator: Adobe Illustrator 25.2.1, SVG Export Plug-In . SVG Version: 6.00 Build 0)  -->
<svg version="1.1" id="Layer_1" xmlns="http://www.w3.org/2000/svg" xmlns:xlink="http://www.w3.org/1999/xlink" x="0px" y="0px"
	 viewBox="0 0 2458 512" style="enable-background:new 0 0 2458 512;" xml:space="preserve">
<style type="text/css">
	.st0{fill:#F1F1F3;}
</style>
<g>
	<path class="st0" d="M602,0.9L602,0.9c-25.8,0-46.7,20.9-46.7,46.7v325.2L351.6,227.9c-7.2-5.1-15.3-7.8-23.5-8.5
		c-0.4,0-0.8-0.1-1.2-0.1c-0.9,0-1.7-0.1-2.6-0.1c-0.9,0-1.7,0-2.6,0.1c-0.4,0-0.8,0.1-1.2,0.1c-8.2,0.6-16.3,3.4-23.5,8.5
		L93.4,372.8V47.6c0-25.8-20.9-46.7-46.7-46.7h0C20.9,0.9,0,21.8,0,47.6v415.1c0,3.5,0.4,7,1.2,10.3c0.2,0.8,0.4,1.5,0.6,2.2
		c0.1,0.5,0.3,1.1,0.4,1.6c1.4,4.7,3.6,9.3,6.6,13.5v0c15,21,44.1,25.9,65.1,11l250.4-178.1l250.4,178.1c21,15,50.2,10,65.1-11v0
		c3-4.2,5.2-8.8,6.6-13.5c0.2-0.5,0.3-1.1,0.4-1.6c0.2-0.7,0.4-1.5,0.6-2.2c0.7-3.3,1.2-6.8,1.2-10.3V47.6
		C648.7,21.8,627.8,0.9,602,0.9z"/>
	<path class="st0" d="M1930,37.9c-0.2-0.7-0.4-1.5-0.6-2.2c-0.1-0.5-0.3-1.1-0.4-1.6c-1.4-4.7-3.6-9.3-6.6-13.5v0
		c-15-21-44.1-25.9-65.1-11l-250.4,178.1L1356.4,9.6c-21-15-50.2-10-65.1,11v0c-3,4.2-5.2,8.8-6.6,13.5c-0.2,0.5-0.3,1.1-0.4,1.6
		c-0.2,0.7-0.4,1.5-0.6,2.2c-0.7,3.3-1.2,6.8-1.2,10.3v415.1c0,25.8,20.9,46.7,46.7,46.7h0c25.8,0,46.7-20.9,46.7-46.7V138.1
		L1579.6,283c7.2,5.1,15.3,7.8,23.5,8.5c0.4,0,0.8,0.1,1.2,0.1c0.9,0,1.7,0.1,2.6,0.1c0.9,0,1.7,0,2.6-0.1c0.4,0,0.8-0.1,1.2-0.1
		c8.2-0.6,16.3-3.4,23.5-8.5l203.7-144.9v325.2c0,25.8,20.9,46.7,46.7,46.7l0,0c25.8,0,46.7-20.9,46.7-46.7V48.2
		C1931.1,44.6,1930.7,41.2,1930,37.9z"/>
	<path class="st0" d="M1172.6,0.8H757.5c-25.8,0-46.7,20.9-46.7,46.7v0c0,25.8,20.9,46.7,46.7,46.7h162.4v370.2
		c0,25.8,20.9,46.7,46.7,46.7c25.8,0,46.7-20.9,46.7-46.7V94.3h159.2c25.8,0,46.7-20.9,46.7-46.7v0
		C1219.3,21.8,1198.4,0.8,1172.6,0.8z"/>
</g>
</svg>
