<?xml version="1.0" encoding="utf-8"?>
<!-- Generator: Adobe Illustrator 25.2.1, SVG Export Plug-In . SVG Version: 6.00 Build 0)  -->
<svg version="1.1" id="Layer_1" xmlns="http://www.w3.org/2000/svg" xmlns:xlink="http://www.w3.org/1999/xlink" x="0px" y="0px"
	 viewBox="0 0 16 16" style="enable-background:new 0 0 16 16;" xml:space="preserve">
<style type="text/css">
	.st0{fill:#0A607F;}
	.st1{fill:#F1F1F3;}
</style>
<path class="st0" d="M8,16L8,16c-4.4,0-8-3.6-8-8v0c0-4.4,3.6-8,8-8h0c4.4,0,8,3.6,8,8v0C16,12.4,12.4,16,8,16z"/>
<g>
	<path class="st1" d="M5.4,10.4l-0.8,0.8V11c0-0.1-0.1-0.2-0.2-0.2c-0.1,0-0.2,0.1-0.2,0.2v0.6c0,0.1,0,0.1,0.1,0.1
		c0,0,0.1,0.1,0.1,0.1H5c0.1,0,0.2-0.1,0.2-0.2v0c0-0.1-0.1-0.2-0.2-0.2H4.8l0.8-0.8c0.1-0.1,0.1-0.2,0-0.2
		C5.5,10.3,5.4,10.3,5.4,10.4z"/>
	<path class="st1" d="M10.4,5.6c0.1,0.1,0.2,0.1,0.2,0l0.8-0.8V5c0,0.1,0.1,0.2,0.2,0.2c0.1,0,0.2-0.1,0.2-0.2V4.4
		c0-0.1,0-0.1-0.1-0.1c0,0-0.1-0.1-0.1-0.1H11c-0.1,0-0.2,0.1-0.2,0.2l0,0c0,0.1,0.1,0.2,0.2,0.2h0.2l-0.8,0.8
		C10.3,5.4,10.3,5.5,10.4,5.6L10.4,5.6z"/>
	<path class="st1" d="M8.1,2.7c0,0-0.1-0.1-0.1-0.1c0,0-0.1,0-0.1,0.1L7.4,3.2c-0.1,0.1-0.1,0.2,0,0.3c0.1,0.1,0.2,0.1,0.3,0
		l0.1-0.1v1.1c0,0.1,0.1,0.2,0.2,0.2c0.1,0,0.2-0.1,0.2-0.2V3.3l0.1,0.1c0.1,0.1,0.2,0.1,0.3,0c0.1-0.1,0.1-0.2,0-0.3L8.1,2.7z"/>
	<path class="st1" d="M8.3,12.6l-0.1,0.1v-1.1c0-0.1-0.1-0.2-0.2-0.2c-0.1,0-0.2,0.1-0.2,0.2v1.2l-0.1-0.1c-0.1-0.1-0.2-0.1-0.3,0
		c-0.1,0.1-0.1,0.2,0,0.3l0.4,0.4c0,0,0.1,0.1,0.1,0.1c0,0,0.1,0,0.1-0.1l0.4-0.4c0.1-0.1,0.1-0.2,0-0.3C8.5,12.5,8.4,12.5,8.3,12.6
		z"/>
	<path class="st1" d="M11.6,10.8c-0.1,0-0.2,0.1-0.2,0.2v0.2l-0.8-0.8c-0.1-0.1-0.2-0.1-0.2,0c-0.1,0.1-0.1,0.2,0,0.2l0.8,0.8H11
		c-0.1,0-0.2,0.1-0.2,0.2v0c0,0.1,0.1,0.2,0.2,0.2h0.6c0.1,0,0.1,0,0.1-0.1c0,0,0.1-0.1,0.1-0.1V11C11.8,10.9,11.7,10.8,11.6,10.8z"
		/>
	<path class="st1" d="M4.4,5.2c0.1,0,0.2-0.1,0.2-0.2V4.8l0.8,0.8c0.1,0.1,0.2,0.1,0.2,0c0.1-0.1,0.1-0.2,0-0.2L4.8,4.5H5
		c0.1,0,0.2-0.1,0.2-0.2l0,0c0-0.1-0.1-0.2-0.2-0.2H4.4c-0.1,0-0.1,0-0.1,0.1c0,0-0.1,0.1-0.1,0.1V5C4.2,5.1,4.3,5.2,4.4,5.2z"/>
	<path class="st1" d="M13.3,7.9l-0.4-0.4c-0.1-0.1-0.2-0.1-0.3,0c-0.1,0.1-0.1,0.2,0,0.3l0.1,0.1h-1.1c-0.1,0-0.2,0.1-0.2,0.2l0,0
		c0,0.1,0.1,0.2,0.2,0.2h1.2l-0.1,0.1c-0.1,0.1-0.1,0.2,0,0.3c0.1,0.1,0.2,0.1,0.3,0l0.4-0.4c0,0,0.1-0.1,0.1-0.1
		C13.3,8,13.3,7.9,13.3,7.9z"/>
	<path class="st1" d="M3.3,8.2h1.1c0.1,0,0.2-0.1,0.2-0.2c0-0.1-0.1-0.2-0.2-0.2H3.3l0.1-0.1c0.1-0.1,0.1-0.2,0-0.3l0,0
		c-0.1-0.1-0.2-0.1-0.3,0L2.7,7.9c0,0-0.1,0.1-0.1,0.1c0,0,0,0.1,0.1,0.1l0.4,0.4c0.1,0.1,0.2,0.1,0.3,0l0,0c0.1-0.1,0.1-0.2,0-0.3
		L3.3,8.2z"/>
</g>
</svg>
